<svg width="24" height="24" viewBox="0 0 24 24" fill="none" xmlns="http://www.w3.org/2000/svg">
<path d="M9.20215 5.48047C9.76941 3.82045 12.062 3.76708 12.7383 5.32324V5.32422L12.7988 5.48438L13.6045 7.8418C13.7941 8.3964 14.1006 8.90387 14.5029 9.33008C14.8551 9.70309 15.2735 10.0065 15.7363 10.2246L15.9375 10.3125L15.9404 10.3135L16.1572 10.3945L16.1602 10.3955L18.5195 11.2012C20.1799 11.7686 20.2329 14.0625 18.6768 14.7383L18.5195 14.7979L16.1602 15.6045C15.6052 15.7939 15.0974 16.1005 14.6709 16.5029C14.2976 16.8551 13.9936 17.2733 13.7754 17.7363L13.6875 17.9375L13.6865 17.9395L13.6055 18.1562L13.6045 18.1592L12.7988 20.5195C12.2313 22.1804 9.93583 22.233 9.26172 20.6758H9.2627L9.20215 20.5195L8.39551 18.1602C8.20607 17.6052 7.90049 17.0964 7.49805 16.6699C7.14583 16.2967 6.72672 15.9936 6.26367 15.7754L6.0625 15.6875L6.06055 15.6865L5.84375 15.6055L5.8418 15.6045L3.48145 14.7988C1.81976 14.2313 1.76751 11.9371 3.3252 11.2627L3.48535 11.2002L3.48438 11.1992L5.8418 10.3955C6.39642 10.2059 6.90386 9.89942 7.33008 9.49707C7.7031 9.14492 8.00648 8.72655 8.22461 8.26367L8.3125 8.0625L8.31348 8.06055L8.39453 7.84375L8.39551 7.84082L9.20215 5.48047ZM10.9053 6.06152L10.0996 8.42188C9.82269 9.23338 9.37196 9.97506 8.7793 10.5947C8.18723 11.2137 7.4673 11.696 6.66992 12.0088L6.41992 12.0996L4.06152 12.9053L3.78516 13L4.06152 13.0947L6.42188 13.9004C7.23342 14.1773 7.97504 14.628 8.59473 15.2207C9.2135 15.8125 9.696 16.5321 10.0088 17.3291V17.3301L10.0996 17.5771V17.5781L10.9053 19.9385L11 20.2158L11.0947 19.9385L11.9004 17.5781C12.1773 16.7666 12.628 16.025 13.2207 15.4053C13.8134 14.7856 14.5346 14.303 15.333 13.9902L15.332 13.9893L15.5801 13.9014L15.5791 13.9004L17.9385 13.0947L18.2158 13L17.9385 12.9053L15.5781 12.0996C14.7666 11.8227 14.0249 11.3719 13.4053 10.7793C12.8631 10.2607 12.4257 9.64384 12.1152 8.96289L11.9902 8.66797L11.9014 8.41992H11.9004L11.0947 6.06152L11 5.78516L10.9053 6.06152ZM19 2.09961C19.1263 2.09961 19.2507 2.12686 19.3652 2.17773L19.4766 2.23633C19.618 2.32459 19.7325 2.45031 19.8066 2.59961L19.8535 2.71484L20.2012 3.73535L20.2178 3.78223L20.2637 3.79785L21.291 4.14746C21.4596 4.20474 21.6075 4.31085 21.7158 4.45215C21.8242 4.59362 21.888 4.76455 21.8994 4.94238C21.9108 5.12003 21.8695 5.29716 21.7803 5.45117C21.6914 5.60426 21.559 5.7282 21.4004 5.80664L21.2842 5.85352L20.2646 6.20117L20.2188 6.2168L20.2021 6.26367L19.8525 7.29102C19.7951 7.45962 19.6884 7.6076 19.5469 7.71582C19.4055 7.82387 19.2352 7.88713 19.0576 7.89844C18.8798 7.90971 18.7019 7.86882 18.5479 7.7793C18.4323 7.71214 18.3339 7.61996 18.2588 7.51074L18.1924 7.39648L18.1465 7.28516L17.7988 6.26465L17.7832 6.21777L17.7363 6.20215L16.709 5.85254C16.5404 5.79523 16.3925 5.68915 16.2842 5.54785C16.1758 5.40638 16.112 5.23545 16.1006 5.05762C16.0892 4.87984 16.1313 4.70292 16.2207 4.54883C16.2878 4.43322 16.3791 4.33398 16.4883 4.25879L16.6035 4.19141L16.7148 4.14648L16.7139 4.14551L17.7354 3.79883L17.7822 3.7832L17.7979 3.73633L18.1475 2.70898C18.193 2.57574 18.2696 2.45618 18.3691 2.3584L18.4766 2.26758C18.5911 2.1858 18.7226 2.1319 18.8604 2.11035L19 2.09961Z" fill="#444444" stroke="white" stroke-width="0.2"/>
</svg>
