<svg width="20" height="20" viewBox="0 0 20 20" fill="none" xmlns="http://www.w3.org/2000/svg">
<g clip-path="url(#clip0_2128_168)">
<path d="M6.11672 6.12428C5.10081 7.14018 4.54248 8.48938 4.54248 9.92634C4.54248 11.3623 5.10188 12.7125 6.11672 13.7284C6.64076 14.2524 7.0244 14.8783 7.25693 15.5598V18.7383C7.25693 18.9001 7.38766 19.0309 7.54948 19.0309H7.78417C8.33927 19.6556 9.0562 20.0007 9.82135 20.0007C10.5865 20.0007 11.3034 19.6546 11.8585 19.0309H12.2861C12.4479 19.0309 12.5787 18.8991 12.5787 18.7383L12.5797 15.5587C12.8134 14.8772 13.1959 14.2513 13.72 13.7273C14.7348 12.7114 15.2942 11.3622 15.2942 9.92634C15.2942 8.49034 14.7348 7.14016 13.72 6.12428C11.6238 4.0271 8.21294 4.0271 6.11672 6.12428ZM9.82249 19.4146C9.4067 19.4146 9.00696 19.2796 8.65227 19.0299H10.9906C10.638 19.2796 10.2383 19.4146 9.82249 19.4146ZM7.84319 17.1685V16.5984L8.08216 16.6294L11.7322 17.1053L11.9937 17.1396V17.7107L8.08768 17.2006L7.84319 17.1685ZM11.9937 16.5501L11.7665 16.5201L7.99541 16.0282L7.84324 16.009V15.7903H11.9937L11.9937 16.5501ZM11.9937 18.4448H7.84319V17.76L11.9948 18.3023L11.9937 18.4448ZM13.3064 13.3127C12.761 13.8582 12.3516 14.5033 12.0858 15.2042H7.75211C7.48527 14.5033 7.07699 13.8593 6.53152 13.3138C5.62598 12.4093 5.12874 11.2059 5.12874 9.92626C5.12874 8.64671 5.62705 7.44327 6.53152 6.53872C8.39938 4.67086 11.4397 4.67086 13.3074 6.53872C14.2129 7.44426 14.7102 8.64663 14.7102 9.92626C14.7102 11.2047 14.2109 12.4082 13.3064 13.3127Z" fill="#7A28A0"/>
<path d="M2.57319 9.76833L0.427775 9.53793C0.400983 9.53472 0.372048 9.53472 0.344186 9.53793C0.129859 9.56151 -0.0266102 9.75333 -0.00301702 9.96873C0.0205588 10.1831 0.212383 10.3395 0.427777 10.3159L2.57319 10.0855C2.64606 10.078 2.70607 10.0202 2.71464 9.94408C2.72322 9.8562 2.66106 9.77691 2.57319 9.76833Z" fill="#7A28A0"/>
<path d="M4.81265 4.84343C4.88124 4.78878 4.89195 4.68804 4.8373 4.62053L3.48275 2.94021C3.46561 2.91984 3.44524 2.89841 3.42381 2.88127C3.25557 2.74624 3.00909 2.77196 2.87407 2.94021C2.73904 3.10845 2.76476 3.35492 2.933 3.48995L4.61333 4.8445C4.66905 4.88951 4.75264 4.89166 4.81265 4.84343Z" fill="#7A28A0"/>
<path d="M9.76165 2.57966C9.76915 2.65253 9.82702 2.71254 9.9031 2.72111C9.98991 2.72968 10.0692 2.66753 10.0778 2.57966L10.3082 0.434244C10.3114 0.407453 10.3114 0.37852 10.3082 0.350656C10.2846 0.136329 10.0928 -0.0201404 9.87739 0.00345271C9.66306 0.0270288 9.50659 0.218853 9.53019 0.434247L9.76165 2.57966Z" fill="#7A28A0"/>
<path d="M16.3552 2.93988L15.0007 4.6202C14.9546 4.677 14.9525 4.76059 15.0007 4.81952C15.0554 4.88811 15.1561 4.89883 15.2236 4.8431L16.9039 3.48855C16.9243 3.47141 16.9457 3.45105 16.9629 3.42961C17.0979 3.26137 17.0722 3.0149 16.9039 2.87987C16.7367 2.74484 16.4913 2.77163 16.3552 2.93988Z" fill="#7A28A0"/>
<path d="M19.8422 9.88386C19.8186 9.66953 19.6268 9.51306 19.4114 9.53666L17.266 9.76706C17.1931 9.77456 17.1331 9.83243 17.1245 9.90851C17.1149 9.99531 17.1781 10.0746 17.266 10.0843L19.4114 10.3147C19.4382 10.3179 19.4671 10.3179 19.495 10.3147C19.7093 10.2911 19.8647 10.0993 19.8422 9.88386Z" fill="#7A28A0"/>
</g>
<defs>
<clipPath id="clip0_2128_168">
<rect width="19.8493" height="20" fill="white"/>
</clipPath>
</defs>
</svg>
