<svg width="24" height="24" viewBox="0 0 24 24" fill="none" xmlns="http://www.w3.org/2000/svg">
<path fill-rule="evenodd" clip-rule="evenodd" d="M10.7381 3.25C9.9641 3.25 9.3191 3.841 9.2511 4.612C9.10959 6.22293 9.07385 7.8414 9.1441 9.457L8.8911 9.475L7.4011 9.583C7.1835 9.5989 6.97375 9.67103 6.7924 9.79233C6.61104 9.91363 6.46429 10.08 6.36651 10.275C6.26874 10.47 6.22329 10.6871 6.23461 10.905C6.24593 11.1229 6.31364 11.3341 6.4311 11.518C7.52838 13.2331 8.94102 14.7244 10.5941 15.913L11.1901 16.342C11.4262 16.5113 11.7095 16.6024 12.0001 16.6024C12.2907 16.6024 12.574 16.5113 12.8101 16.342L13.4061 15.913C15.0608 14.7263 16.4737 13.2346 17.5691 11.518C17.6866 11.3341 17.7543 11.1229 17.7656 10.905C17.7769 10.6871 17.7315 10.47 17.6337 10.275C17.5359 10.08 17.3892 9.91363 17.2078 9.79233C17.0264 9.67103 16.8167 9.5989 16.5991 9.583L15.1091 9.475L14.8561 9.457C14.9261 7.842 14.8901 6.223 14.7491 4.612C14.717 4.23994 14.5464 3.89348 14.271 3.64124C13.9956 3.389 13.6355 3.24937 13.2621 3.25H10.7381ZM10.6821 10.115C10.5681 8.32763 10.5892 6.5342 10.7451 4.75H13.2551C13.4114 6.53418 13.4328 8.3276 13.3191 10.115C13.3129 10.2141 13.3264 10.3134 13.3589 10.4073C13.3914 10.5011 13.4421 10.5875 13.5083 10.6616C13.5744 10.7356 13.6546 10.7958 13.7442 10.8386C13.8338 10.8814 13.9309 10.906 14.0301 10.911C14.3541 10.927 14.6774 10.947 15.0001 10.971L16.0811 11.05C15.1202 12.4634 13.9187 13.6972 12.5311 14.695L12.0011 15.076L11.4691 14.695C10.0815 13.6972 8.87997 12.4634 7.9191 11.05L9.0001 10.97C9.32343 10.9467 9.64677 10.927 9.9701 10.911C10.0693 10.9062 10.1666 10.8816 10.2563 10.8389C10.346 10.7961 10.4263 10.736 10.4926 10.6619C10.5588 10.5878 10.6097 10.5014 10.6422 10.4075C10.6748 10.3136 10.6883 10.2142 10.6821 10.115Z" fill="#6F2496" fill-opacity="0.4"/>
<path d="M5.75 17C5.75 16.8011 5.67098 16.6103 5.53033 16.4697C5.38968 16.329 5.19891 16.25 5 16.25C4.80109 16.25 4.61032 16.329 4.46967 16.4697C4.32902 16.6103 4.25 16.8011 4.25 17V19C4.25 19.966 5.034 20.75 6 20.75H18C18.4641 20.75 18.9092 20.5656 19.2374 20.2374C19.5656 19.9092 19.75 19.4641 19.75 19V17C19.75 16.8011 19.671 16.6103 19.5303 16.4697C19.3897 16.329 19.1989 16.25 19 16.25C18.8011 16.25 18.6103 16.329 18.4697 16.4697C18.329 16.6103 18.25 16.8011 18.25 17V19C18.25 19.0663 18.2237 19.1299 18.1768 19.1768C18.1299 19.2237 18.0663 19.25 18 19.25H6C5.9337 19.25 5.87011 19.2237 5.82322 19.1768C5.77634 19.1299 5.75 19.0663 5.75 19V17Z" fill="#6F2496" fill-opacity="0.4"/>
</svg>
