<svg width="24" height="24" viewBox="0 0 24 24" fill="none" xmlns="http://www.w3.org/2000/svg">
<path d="M11.7643 21.2161C12.447 21.2161 12.939 20.7138 12.939 20.0409V4.01963C12.939 3.34677 12.447 2.78406 11.7437 2.78406C11.2517 2.78406 10.9303 3.02534 10.3877 3.50749L5.66698 7.69591C5.60655 7.75591 5.51612 7.78634 5.41584 7.78634H2.43255C1.00626 7.78634 0.302979 8.49949 0.302979 10.0162V14.0143C0.302979 15.5315 1.00584 16.2442 2.43255 16.2442H5.41541C5.51612 16.2442 5.60655 16.2742 5.66698 16.3346L10.3877 20.5638C10.8801 21.0052 11.2718 21.2165 11.7638 21.2165M20.4424 19.1675C20.8337 19.4285 21.3158 19.3282 21.5974 18.9262C22.923 17.0782 23.6966 14.6173 23.6966 12.0459C23.6966 9.4642 22.9333 7.00334 21.5974 5.15491C21.306 4.7632 20.8337 4.66291 20.442 4.92391C20.0606 5.18534 20.0001 5.67734 20.3014 6.10934C21.3964 7.71649 22.0795 9.82591 22.0795 12.0459C22.0795 14.2659 21.4165 16.3951 20.3014 17.9821C20.01 18.4141 20.061 18.9061 20.4424 19.1675ZM11.1805 19.0972C11.1304 19.0972 11.07 19.0672 11.0095 19.0068L6.56141 14.9983C6.32012 14.7772 6.11912 14.7271 5.84826 14.7271H2.50284C2.11112 14.7271 1.91998 14.5462 1.91998 14.1442V9.88549C1.91998 9.49377 2.11112 9.30306 2.50284 9.30306H5.84784C6.11869 9.30306 6.30984 9.26277 6.56098 9.03177L11.0104 4.99377C11.061 4.95391 11.121 4.91363 11.1814 4.91363C11.2714 4.91363 11.322 4.97363 11.322 5.0542V18.9459C11.322 19.0363 11.2718 19.0968 11.1814 19.0968M16.4348 16.4551C16.7764 16.6959 17.2684 16.6153 17.5598 16.2236C18.3433 15.1693 18.8155 13.6222 18.8155 12.0451C18.8155 10.4679 18.3334 8.93149 17.5598 7.85663C17.2684 7.46491 16.7863 7.38434 16.4348 7.6252C15.9925 7.91663 15.9424 8.4292 16.2638 8.87106C16.8467 9.65449 17.1981 10.8498 17.1981 12.0451C17.1981 13.2408 16.8265 14.4361 16.254 15.2293C15.9527 15.6613 16.0028 16.1533 16.4348 16.4551Z" fill="#6F2496" fill-opacity="0.4"/>
</svg>
