<svg width="24" height="24" viewBox="0 0 24 24" fill="none" xmlns="http://www.w3.org/2000/svg">
<path d="M11.9998 4.07495C12.0649 4.07495 12.1346 4.08756 12.2107 4.11987L12.2898 4.15894C12.3436 4.18967 12.3892 4.23213 12.4275 4.29565L12.4636 4.36694L12.4646 4.3689L14.1052 8.26343C14.2942 8.71183 14.6868 9.03668 15.1531 9.14331L15.3572 9.17554L19.5847 9.54565C19.7495 9.56994 19.8312 9.61648 19.8708 9.65112C19.9345 9.7068 19.9892 9.78395 20.03 9.89624C20.0642 9.99029 20.0711 10.082 20.0496 10.1824C20.0336 10.2565 19.9921 10.3374 19.8923 10.4265L16.6804 13.2019C16.3116 13.5207 16.1233 13.9952 16.1667 14.4724L16.2 14.6765L17.1628 18.8132C17.1911 18.9362 17.1761 19.0142 17.1482 19.073C17.0977 19.1792 17.0305 19.263 16.9441 19.3298C16.8747 19.3834 16.7923 19.4169 16.6824 19.4265C16.6018 19.4335 16.5183 19.4173 16.4197 19.3542L16.1501 19.7751L16.4197 19.3533L16.408 19.3464L12.7742 17.158C12.3576 16.907 11.8494 16.8751 11.4099 17.0632L11.2263 17.158L7.59253 19.3464L7.85034 19.7751L7.59155 19.3464L7.58179 19.3533C7.48254 19.4164 7.39807 19.4333 7.31616 19.4265C7.20735 19.4174 7.12632 19.3835 7.05737 19.3298C6.97001 19.2619 6.90178 19.1787 6.85132 19.073C6.82387 19.0155 6.80896 18.937 6.83765 18.8123L6.83667 18.8113L7.80054 14.6765C7.91096 14.2017 7.78266 13.7075 7.46655 13.3474L7.32007 13.2019L4.10229 10.4216C4.00756 10.3343 3.96765 10.2545 3.9519 10.1814C3.93557 10.1054 3.93487 10.0346 3.94995 9.9646L3.97046 9.89526C4.01038 9.78478 4.06494 9.70777 4.12964 9.65112C4.17001 9.61581 4.25128 9.56928 4.41382 9.54565L8.64331 9.17554C9.12794 9.13307 9.55713 8.85906 9.80151 8.448L9.89526 8.26343L11.5359 4.3689L11.5369 4.36694C11.5699 4.28785 11.6103 4.23347 11.6589 4.19409L11.7107 4.15894C11.8185 4.09745 11.913 4.07501 11.9998 4.07495Z" stroke="#6F2496" stroke-opacity="0.4"/>
</svg>
